<svg xmlns="http://www.w3.org/2000/svg" viewBox="0 0 64 64" fill="none">
  <rect width="64" height="64" rx="14" fill="#0B0E14"/>
  <rect x="0.75" y="0.75" width="62.5" height="62.5" rx="13.25" stroke="#263244" stroke-width="1.5"/>
  <g transform="translate(7 18) scale(0.64102564)">
    <path d="M78 44L48.2658 26.4635C46.7603 25.5598 44 23.8524 44 22H51.0345L78 38.2105V44Z" fill="#F8FAFC"/>
    <path d="M78 0L48.2658 17.5365C46.7603 18.4402 44 20.1476 44 22H51.0345L78 5.78947V0Z" fill="#F8FAFC"/>
    <path d="M0 44L29.7342 26.4635C31.2397 25.5598 34 23.8524 34 22H26.9655L0 38.2105V44Z" fill="#F8FAFC"/>
    <path d="M0 0L29.7342 17.5365C31.2397 18.4402 34 20.1476 34 22H26.9655L0 5.78947V0Z" fill="#F8FAFC"/>
  </g>
</svg>
